<?xml version="1.0" standalone="no"?><!DOCTYPE svg PUBLIC "-//W3C//DTD SVG 1.1//EN" "http://www.w3.org/Graphics/SVG/1.1/DTD/svg11.dtd"><svg t="1560002227748" class="icon" style="" viewBox="0 0 1024 1024" version="1.1" xmlns="http://www.w3.org/2000/svg" p-id="15556" xmlns:xlink="http://www.w3.org/1999/xlink" width="32" height="32"><defs><style type="text/css"></style></defs><path d="M511.94423 876.550787c-224.577848 0-424.13586-139.548266-508.397962-355.517039l-3.52529-9.080819 3.524267-9.039887c84.297918-215.937051 283.85593-355.464851 508.398985-355.464851 224.612641 0 424.215678 139.53701 508.512572 355.48941l3.521197 9.046027-3.51915 9.046027C936.190607 737.00252 736.586546 876.550787 511.94423 876.550787L511.94423 876.550787zM53.62585 511.985674c38.562271 93.818759 101.758592 172.914188 182.833095 228.806149 81.547271 56.215326 176.808892 85.928045 275.485285 85.928045 98.689696 0 193.974853-29.717835 275.549753-85.939301 81.107249-55.898101 144.320966-134.989437 182.88426-228.795916-38.562271-93.799316-101.774965-172.880419-182.88426-228.765217-81.569784-56.203046-176.85494-85.910649-275.549753-85.910649-98.67844 0-193.940061 29.708626-275.485285 85.910649C155.382395 339.099115 92.187097 418.180218 53.62585 511.985674L53.62585 511.985674zM507.316839 701.475376c-98.249675 0-178.180122-82.525552-178.180122-183.961802 0-101.434204 79.93147-183.956685 178.180122-183.956685 98.245581 0 178.173982 82.521458 178.173982 183.956685C685.490821 618.950847 605.563444 701.475376 507.316839 701.475376L507.316839 701.475376zM507.316839 383.417483c-70.756507 0-128.321574 60.155055-128.321574 134.096091 0 73.943083 57.565067 134.100184 128.321574 134.100184 70.753437 0 128.314411-60.156078 128.314411-134.100184C635.63125 443.573561 578.070276 383.417483 507.316839 383.417483L507.316839 383.417483z" p-id="15557"></path></svg>